<svg xmlns="http://www.w3.org/2000/svg" xmlns:xlink="http://www.w3.org/1999/xlink" width="1024" zoomAndPan="magnify" viewBox="0 0 768 767.999994" height="1024" preserveAspectRatio="xMidYMid meet" version="1.0"><defs><g/><clipPath id="d0f128a8ab"><path d="M 7 107 L 262 107 L 262 191.839844 L 7 191.839844 Z M 7 107 " clip-rule="nonzero"/></clipPath><clipPath id="c48a72355a"><rect x="0" width="255" y="0" height="85"/></clipPath><clipPath id="28a180de60"><path d="M 0.28125 0.558594 L 751.480469 0.558594 L 751.480469 165 L 0.28125 165 Z M 0.28125 0.558594 " clip-rule="nonzero"/></clipPath><clipPath id="1a9728b220"><rect x="0" width="752" y="0" height="165"/></clipPath><clipPath id="52c7d02c0d"><rect x="0" width="752" y="0" height="192"/></clipPath></defs><rect x="-76.8" width="921.6" fill="#ffffff" y="-76.799999" height="921.599993" fill-opacity="1"/><rect x="-76.8" width="921.6" fill="#ffffff" y="-76.799999" height="921.599993" fill-opacity="1"/><g transform="matrix(1, 0, 0, 1, 11, 292)"><g clip-path="url(#52c7d02c0d)"><g clip-path="url(#d0f128a8ab)"><g transform="matrix(1, 0, 0, 1, 7, 107)"><g clip-path="url(#c48a72355a)"><g fill="#000000" fill-opacity="1"><g transform="translate(0.766781, 55.130763)"><g><path d="M 2.859375 -0.515625 L 2.859375 -26.546875 C 2.859375 -27.140625 3.140625 -27.5625 3.703125 -27.8125 C 4.078125 -28 4.675781 -28.265625 5.5 -28.609375 C 6.320312 -28.953125 7.394531 -29.253906 8.71875 -29.515625 C 10.050781 -29.773438 11.640625 -29.90625 13.484375 -29.90625 C 17.472656 -29.90625 20.363281 -29.039062 22.15625 -27.3125 C 23.957031 -25.582031 24.859375 -23.0625 24.859375 -19.75 C 24.859375 -16.445312 23.984375 -13.9375 22.234375 -12.21875 C 20.484375 -10.5 17.660156 -9.640625 13.765625 -9.640625 C 12.296875 -9.640625 10.984375 -9.71875 9.828125 -9.875 C 8.671875 -10.03125 7.6875 -10.21875 6.875 -10.4375 L 6.875 -0.515625 C 6.875 -0.203125 6.75 0.03125 6.5 0.1875 C 6.25 0.34375 5.707031 0.421875 4.875 0.421875 C 4.03125 0.421875 3.484375 0.34375 3.234375 0.1875 C 2.984375 0.03125 2.859375 -0.203125 2.859375 -0.515625 Z M 6.875 -25.703125 L 6.875 -13.765625 C 7.5625 -13.546875 8.441406 -13.332031 9.515625 -13.125 C 10.597656 -12.925781 11.84375 -12.828125 13.25 -12.828125 C 16.03125 -12.828125 17.988281 -13.421875 19.125 -14.609375 C 20.257812 -15.796875 20.828125 -17.523438 20.828125 -19.796875 C 20.828125 -22.109375 20.25 -23.832031 19.09375 -24.96875 C 17.945312 -26.113281 15.984375 -26.6875 13.203125 -26.6875 C 11.796875 -26.6875 10.566406 -26.582031 9.515625 -26.375 C 8.472656 -26.175781 7.59375 -25.953125 6.875 -25.703125 Z M 6.875 -25.703125 "/></g></g></g><g fill="#000000" fill-opacity="1"><g transform="translate(25.905499, 55.130763)"><g><path d="M 11.140625 -21.484375 C 14.296875 -21.484375 16.539062 -20.578125 17.875 -18.765625 C 19.21875 -16.960938 19.890625 -14.34375 19.890625 -10.90625 C 19.890625 -9.6875 19.3125 -9.078125 18.15625 -9.078125 L 5.671875 -9.078125 C 5.847656 -6.710938 6.5 -5.015625 7.625 -3.984375 C 8.75 -2.953125 10.359375 -2.4375 12.453125 -2.4375 C 13.515625 -2.4375 14.425781 -2.566406 15.1875 -2.828125 C 15.957031 -3.097656 16.75 -3.453125 17.5625 -3.890625 C 17.707031 -3.984375 17.828125 -4.03125 17.921875 -4.03125 C 18.203125 -4.03125 18.5 -3.6875 18.8125 -3 C 19.03125 -2.5625 19.140625 -2.21875 19.140625 -1.96875 C 19.140625 -1.71875 19.03125 -1.53125 18.8125 -1.40625 C 17.789062 -0.8125 16.78125 -0.359375 15.78125 -0.046875 C 14.78125 0.265625 13.453125 0.421875 11.796875 0.421875 C 5.210938 0.421875 1.921875 -3.226562 1.921875 -10.53125 C 1.921875 -14.1875 2.675781 -16.925781 4.1875 -18.75 C 5.695312 -20.570312 8.015625 -21.484375 11.140625 -21.484375 Z M 16.53125 -11.84375 C 16.40625 -14.28125 15.925781 -16.019531 15.09375 -17.0625 C 14.269531 -18.101562 12.96875 -18.625 11.1875 -18.625 C 9.40625 -18.625 8.0625 -18.078125 7.15625 -16.984375 C 6.257812 -15.898438 5.75 -14.1875 5.625 -11.84375 Z M 16.53125 -11.84375 "/></g></g></g><g fill="#000000" fill-opacity="1"><g transform="translate(47.673683, 55.130763)"><g><path d="M 1.921875 -10.53125 C 1.921875 -14.46875 2.769531 -17.273438 4.46875 -18.953125 C 6.164062 -20.640625 8.40625 -21.484375 11.1875 -21.484375 C 12.40625 -21.484375 13.5 -21.347656 14.46875 -21.078125 C 15.4375 -20.816406 16.265625 -20.5 16.953125 -20.125 L 16.953125 -31.125 C 16.953125 -31.4375 17.054688 -31.660156 17.265625 -31.796875 C 17.484375 -31.941406 17.984375 -32.015625 18.765625 -32.015625 C 19.546875 -32.015625 20.046875 -31.941406 20.265625 -31.796875 C 20.484375 -31.660156 20.59375 -31.4375 20.59375 -31.125 L 20.59375 -3.09375 C 20.59375 -2.59375 20.40625 -2.203125 20.03125 -1.921875 C 19.75 -1.703125 19.269531 -1.40625 18.59375 -1.03125 C 17.925781 -0.65625 17.054688 -0.316406 15.984375 -0.015625 C 14.910156 0.273438 13.609375 0.421875 12.078125 0.421875 C 10.171875 0.421875 8.445312 0.0625 6.90625 -0.65625 C 5.363281 -1.375 4.144531 -2.535156 3.25 -4.140625 C 2.363281 -5.742188 1.921875 -7.875 1.921875 -10.53125 Z M 16.953125 -3.75 L 16.953125 -16.859375 C 16.390625 -17.296875 15.675781 -17.691406 14.8125 -18.046875 C 13.957031 -18.398438 12.953125 -18.578125 11.796875 -18.578125 C 9.921875 -18.578125 8.421875 -17.984375 7.296875 -16.796875 C 6.179688 -15.617188 5.625 -13.53125 5.625 -10.53125 C 5.625 -7.53125 6.207031 -5.4375 7.375 -4.25 C 8.539062 -3.070312 10.09375 -2.484375 12.03125 -2.484375 C 13.0625 -2.484375 14 -2.613281 14.84375 -2.875 C 15.6875 -3.144531 16.390625 -3.4375 16.953125 -3.75 Z M 16.953125 -3.75 "/></g></g></g><g fill="#000000" fill-opacity="1"><g transform="translate(71.127141, 55.130763)"><g><path d="M 2.859375 -0.46875 L 2.859375 -17.921875 C 2.859375 -18.359375 3.03125 -18.71875 3.375 -19 C 3.90625 -19.4375 4.769531 -19.957031 5.96875 -20.5625 C 7.164062 -21.175781 8.78125 -21.484375 10.8125 -21.484375 C 12.1875 -21.484375 13.425781 -21.34375 14.53125 -21.0625 C 15.644531 -20.78125 16.578125 -20.375 17.328125 -19.84375 C 17.566406 -19.6875 17.6875 -19.5 17.6875 -19.28125 C 17.6875 -19.125 17.566406 -18.765625 17.328125 -18.203125 C 17.140625 -17.796875 16.984375 -17.523438 16.859375 -17.390625 C 16.734375 -17.253906 16.59375 -17.1875 16.4375 -17.1875 C 16.40625 -17.1875 16.296875 -17.21875 16.109375 -17.28125 C 15.515625 -17.675781 14.769531 -17.988281 13.875 -18.21875 C 12.988281 -18.457031 11.953125 -18.578125 10.765625 -18.578125 C 9.890625 -18.578125 9.097656 -18.5 8.390625 -18.34375 C 7.691406 -18.1875 7.078125 -18 6.546875 -17.78125 L 6.546875 -0.46875 C 6.546875 -0.15625 6.4375 0.0664062 6.21875 0.203125 C 6 0.347656 5.503906 0.421875 4.734375 0.421875 C 3.953125 0.421875 3.441406 0.347656 3.203125 0.203125 C 2.972656 0.0664062 2.859375 -0.15625 2.859375 -0.46875 Z M 2.859375 -0.46875 "/></g></g></g><g fill="#000000" fill-opacity="1"><g transform="translate(87.839468, 55.130763)"><g><path d="M 11.140625 -21.484375 C 16.753906 -21.484375 19.5625 -19.316406 19.5625 -14.984375 L 19.5625 -0.46875 C 19.5625 -0.15625 19.46875 0.0664062 19.28125 0.203125 C 19.09375 0.347656 18.734375 0.421875 18.203125 0.421875 C 17.335938 0.421875 16.8125 0.140625 16.625 -0.421875 L 16.203125 -2.578125 C 15.546875 -1.890625 14.613281 -1.21875 13.40625 -0.5625 C 12.207031 0.09375 10.640625 0.421875 8.703125 0.421875 C 6.617188 0.421875 4.96875 -0.113281 3.75 -1.1875 C 2.53125 -2.269531 1.921875 -3.882812 1.921875 -6.03125 C 1.921875 -8.15625 2.613281 -9.816406 4 -11.015625 C 5.382812 -12.222656 7.59375 -12.828125 10.625 -12.828125 C 11.71875 -12.828125 12.703125 -12.75 13.578125 -12.59375 C 14.453125 -12.4375 15.21875 -12.265625 15.875 -12.078125 L 15.875 -14.515625 C 15.875 -17.253906 14.09375 -18.625 10.53125 -18.625 C 8.59375 -18.625 6.738281 -18.097656 4.96875 -17.046875 C 4.78125 -16.984375 4.671875 -16.953125 4.640625 -16.953125 C 4.359375 -16.953125 4.078125 -17.273438 3.796875 -17.921875 C 3.546875 -18.484375 3.421875 -18.84375 3.421875 -19 C 3.421875 -19.1875 3.546875 -19.359375 3.796875 -19.515625 C 4.890625 -20.171875 5.988281 -20.660156 7.09375 -20.984375 C 8.195312 -21.316406 9.546875 -21.484375 11.140625 -21.484375 Z M 15.875 -5.15625 L 15.875 -9.453125 C 15.3125 -9.640625 14.613281 -9.816406 13.78125 -9.984375 C 12.957031 -10.160156 12 -10.25 10.90625 -10.25 C 7.382812 -10.25 5.625 -8.9375 5.625 -6.3125 C 5.625 -4.914062 6.019531 -3.910156 6.8125 -3.296875 C 7.601562 -2.691406 8.671875 -2.390625 10.015625 -2.390625 C 11.578125 -2.390625 12.828125 -2.703125 13.765625 -3.328125 C 14.703125 -3.953125 15.40625 -4.5625 15.875 -5.15625 Z M 15.875 -5.15625 "/></g></g></g><g fill="#000000" fill-opacity="1"><g transform="translate(110.216223, 55.130763)"><g/></g></g><g fill="#000000" fill-opacity="1"><g transform="translate(121.030088, 55.130763)"><g><path d="M 2.90625 -26.5 C 2.90625 -27.15625 3.1875 -27.59375 3.75 -27.8125 C 4.375 -28.125 5.519531 -28.550781 7.1875 -29.09375 C 8.851562 -29.632812 11.015625 -29.90625 13.671875 -29.90625 C 17.160156 -29.90625 19.859375 -29.273438 21.765625 -28.015625 C 23.671875 -26.753906 24.625 -24.71875 24.625 -21.90625 C 24.625 -20.3125 24.296875 -18.898438 23.640625 -17.671875 C 22.984375 -16.441406 21.90625 -15.515625 20.40625 -14.890625 C 24.1875 -13.828125 26.078125 -11.40625 26.078125 -7.625 C 26.078125 -4.945312 25.15625 -2.9375 23.3125 -1.59375 C 21.46875 -0.25 18.519531 0.421875 14.46875 0.421875 C 11.71875 0.421875 9.429688 0.148438 7.609375 -0.390625 C 5.785156 -0.941406 4.5 -1.375 3.75 -1.6875 C 3.46875 -1.8125 3.253906 -2 3.109375 -2.25 C 2.972656 -2.5 2.90625 -2.765625 2.90625 -3.046875 Z M 6.875 -3.984375 C 7.6875 -3.703125 8.734375 -3.425781 10.015625 -3.15625 C 11.296875 -2.894531 12.71875 -2.765625 14.28125 -2.765625 C 17.019531 -2.765625 19.003906 -3.175781 20.234375 -4 C 21.472656 -4.832031 22.09375 -6.148438 22.09375 -7.953125 C 22.09375 -9.609375 21.488281 -10.875 20.28125 -11.75 C 19.082031 -12.625 17.347656 -13.0625 15.078125 -13.0625 L 6.875 -13.0625 Z M 6.875 -25.65625 L 6.875 -16.4375 L 14.328125 -16.4375 C 16.660156 -16.4375 18.285156 -16.945312 19.203125 -17.96875 C 20.128906 -19 20.59375 -20.21875 20.59375 -21.625 C 20.59375 -23.5 20 -24.816406 18.8125 -25.578125 C 17.632812 -26.347656 15.875 -26.734375 13.53125 -26.734375 C 12.0625 -26.734375 10.769531 -26.613281 9.65625 -26.375 C 8.550781 -26.144531 7.625 -25.90625 6.875 -25.65625 Z M 6.875 -25.65625 "/></g></g></g><g fill="#000000" fill-opacity="1"><g transform="translate(148.97763, 55.130763)"><g><path d="M 2.859375 -0.46875 L 2.859375 -17.921875 C 2.859375 -18.359375 3.03125 -18.71875 3.375 -19 C 3.90625 -19.4375 4.769531 -19.957031 5.96875 -20.5625 C 7.164062 -21.175781 8.78125 -21.484375 10.8125 -21.484375 C 12.1875 -21.484375 13.425781 -21.34375 14.53125 -21.0625 C 15.644531 -20.78125 16.578125 -20.375 17.328125 -19.84375 C 17.566406 -19.6875 17.6875 -19.5 17.6875 -19.28125 C 17.6875 -19.125 17.566406 -18.765625 17.328125 -18.203125 C 17.140625 -17.796875 16.984375 -17.523438 16.859375 -17.390625 C 16.734375 -17.253906 16.59375 -17.1875 16.4375 -17.1875 C 16.40625 -17.1875 16.296875 -17.21875 16.109375 -17.28125 C 15.515625 -17.675781 14.769531 -17.988281 13.875 -18.21875 C 12.988281 -18.457031 11.953125 -18.578125 10.765625 -18.578125 C 9.890625 -18.578125 9.097656 -18.5 8.390625 -18.34375 C 7.691406 -18.1875 7.078125 -18 6.546875 -17.78125 L 6.546875 -0.46875 C 6.546875 -0.15625 6.4375 0.0664062 6.21875 0.203125 C 6 0.347656 5.503906 0.421875 4.734375 0.421875 C 3.953125 0.421875 3.441406 0.347656 3.203125 0.203125 C 2.972656 0.0664062 2.859375 -0.15625 2.859375 -0.46875 Z M 2.859375 -0.46875 "/></g></g></g><g fill="#000000" fill-opacity="1"><g transform="translate(165.689957, 55.130763)"><g><path d="M 11.140625 -21.484375 C 16.753906 -21.484375 19.5625 -19.316406 19.5625 -14.984375 L 19.5625 -0.46875 C 19.5625 -0.15625 19.46875 0.0664062 19.28125 0.203125 C 19.09375 0.347656 18.734375 0.421875 18.203125 0.421875 C 17.335938 0.421875 16.8125 0.140625 16.625 -0.421875 L 16.203125 -2.578125 C 15.546875 -1.890625 14.613281 -1.21875 13.40625 -0.5625 C 12.207031 0.09375 10.640625 0.421875 8.703125 0.421875 C 6.617188 0.421875 4.96875 -0.113281 3.75 -1.1875 C 2.53125 -2.269531 1.921875 -3.882812 1.921875 -6.03125 C 1.921875 -8.15625 2.613281 -9.816406 4 -11.015625 C 5.382812 -12.222656 7.59375 -12.828125 10.625 -12.828125 C 11.71875 -12.828125 12.703125 -12.75 13.578125 -12.59375 C 14.453125 -12.4375 15.21875 -12.265625 15.875 -12.078125 L 15.875 -14.515625 C 15.875 -17.253906 14.09375 -18.625 10.53125 -18.625 C 8.59375 -18.625 6.738281 -18.097656 4.96875 -17.046875 C 4.78125 -16.984375 4.671875 -16.953125 4.640625 -16.953125 C 4.359375 -16.953125 4.078125 -17.273438 3.796875 -17.921875 C 3.546875 -18.484375 3.421875 -18.84375 3.421875 -19 C 3.421875 -19.1875 3.546875 -19.359375 3.796875 -19.515625 C 4.890625 -20.171875 5.988281 -20.660156 7.09375 -20.984375 C 8.195312 -21.316406 9.546875 -21.484375 11.140625 -21.484375 Z M 15.875 -5.15625 L 15.875 -9.453125 C 15.3125 -9.640625 14.613281 -9.816406 13.78125 -9.984375 C 12.957031 -10.160156 12 -10.25 10.90625 -10.25 C 7.382812 -10.25 5.625 -8.9375 5.625 -6.3125 C 5.625 -4.914062 6.019531 -3.910156 6.8125 -3.296875 C 7.601562 -2.691406 8.671875 -2.390625 10.015625 -2.390625 C 11.578125 -2.390625 12.828125 -2.703125 13.765625 -3.328125 C 14.703125 -3.953125 15.40625 -4.5625 15.875 -5.15625 Z M 15.875 -5.15625 "/></g></g></g><g fill="#000000" fill-opacity="1"><g transform="translate(188.066717, 55.130763)"><g><path d="M 2.859375 -0.46875 L 2.859375 -17.828125 C 2.859375 -18.328125 3.0625 -18.734375 3.46875 -19.046875 C 3.8125 -19.296875 4.335938 -19.609375 5.046875 -19.984375 C 5.765625 -20.359375 6.675781 -20.703125 7.78125 -21.015625 C 8.894531 -21.328125 10.1875 -21.484375 11.65625 -21.484375 C 17.550781 -21.484375 20.5 -19.128906 20.5 -14.421875 L 20.5 -0.46875 C 20.5 -0.15625 20.390625 0.0664062 20.171875 0.203125 C 19.953125 0.347656 19.453125 0.421875 18.671875 0.421875 C 17.898438 0.421875 17.394531 0.347656 17.15625 0.203125 C 16.925781 0.0664062 16.8125 -0.15625 16.8125 -0.46875 L 16.8125 -14 C 16.8125 -15.53125 16.40625 -16.675781 15.59375 -17.4375 C 14.78125 -18.195312 13.4375 -18.578125 11.5625 -18.578125 C 10.53125 -18.578125 9.582031 -18.4375 8.71875 -18.15625 C 7.863281 -17.875 7.140625 -17.582031 6.546875 -17.28125 L 6.546875 -0.46875 C 6.546875 -0.15625 6.4375 0.0664062 6.21875 0.203125 C 6 0.347656 5.503906 0.421875 4.734375 0.421875 C 3.953125 0.421875 3.441406 0.347656 3.203125 0.203125 C 2.972656 0.0664062 2.859375 -0.15625 2.859375 -0.46875 Z M 2.859375 -0.46875 "/></g></g></g><g fill="#000000" fill-opacity="1"><g transform="translate(211.426547, 55.130763)"><g><path d="M 11.703125 -21.484375 C 13.453125 -21.484375 14.867188 -21.316406 15.953125 -20.984375 C 17.046875 -20.660156 18.0625 -20.203125 19 -19.609375 C 19.25 -19.453125 19.375 -19.265625 19.375 -19.046875 C 19.375 -18.828125 19.25 -18.46875 19 -17.96875 C 18.65625 -17.257812 18.34375 -16.90625 18.0625 -16.90625 C 17.9375 -16.90625 17.828125 -16.953125 17.734375 -17.046875 C 16.960938 -17.535156 16.125 -17.910156 15.21875 -18.171875 C 14.3125 -18.441406 13.265625 -18.578125 12.078125 -18.578125 C 9.984375 -18.578125 8.382812 -17.929688 7.28125 -16.640625 C 6.175781 -15.347656 5.625 -13.3125 5.625 -10.53125 C 5.625 -7.75 6.175781 -5.710938 7.28125 -4.421875 C 8.382812 -3.128906 9.984375 -2.484375 12.078125 -2.484375 C 13.265625 -2.484375 14.3125 -2.613281 15.21875 -2.875 C 16.125 -3.144531 16.960938 -3.53125 17.734375 -4.03125 C 17.828125 -4.125 17.9375 -4.171875 18.0625 -4.171875 C 18.34375 -4.171875 18.65625 -3.8125 19 -3.09375 C 19.25 -2.59375 19.375 -2.234375 19.375 -2.015625 C 19.375 -1.796875 19.25 -1.609375 19 -1.453125 C 18.0625 -0.859375 17.046875 -0.394531 15.953125 -0.0625 C 14.867188 0.257812 13.453125 0.421875 11.703125 0.421875 C 8.484375 0.421875 6.046875 -0.484375 4.390625 -2.296875 C 2.742188 -4.109375 1.921875 -6.851562 1.921875 -10.53125 C 1.921875 -14.21875 2.742188 -16.960938 4.390625 -18.765625 C 6.046875 -20.578125 8.484375 -21.484375 11.703125 -21.484375 Z M 11.703125 -21.484375 "/></g></g></g><g fill="#000000" fill-opacity="1"><g transform="translate(232.211639, 55.130763)"><g><path d="M 11.140625 -21.484375 C 16.753906 -21.484375 19.5625 -19.316406 19.5625 -14.984375 L 19.5625 -0.46875 C 19.5625 -0.15625 19.46875 0.0664062 19.28125 0.203125 C 19.09375 0.347656 18.734375 0.421875 18.203125 0.421875 C 17.335938 0.421875 16.8125 0.140625 16.625 -0.421875 L 16.203125 -2.578125 C 15.546875 -1.890625 14.613281 -1.21875 13.40625 -0.5625 C 12.207031 0.09375 10.640625 0.421875 8.703125 0.421875 C 6.617188 0.421875 4.96875 -0.113281 3.75 -1.1875 C 2.53125 -2.269531 1.921875 -3.882812 1.921875 -6.03125 C 1.921875 -8.15625 2.613281 -9.816406 4 -11.015625 C 5.382812 -12.222656 7.59375 -12.828125 10.625 -12.828125 C 11.71875 -12.828125 12.703125 -12.75 13.578125 -12.59375 C 14.453125 -12.4375 15.21875 -12.265625 15.875 -12.078125 L 15.875 -14.515625 C 15.875 -17.253906 14.09375 -18.625 10.53125 -18.625 C 8.59375 -18.625 6.738281 -18.097656 4.96875 -17.046875 C 4.78125 -16.984375 4.671875 -16.953125 4.640625 -16.953125 C 4.359375 -16.953125 4.078125 -17.273438 3.796875 -17.921875 C 3.546875 -18.484375 3.421875 -18.84375 3.421875 -19 C 3.421875 -19.1875 3.546875 -19.359375 3.796875 -19.515625 C 4.890625 -20.171875 5.988281 -20.660156 7.09375 -20.984375 C 8.195312 -21.316406 9.546875 -21.484375 11.140625 -21.484375 Z M 15.875 -5.15625 L 15.875 -9.453125 C 15.3125 -9.640625 14.613281 -9.816406 13.78125 -9.984375 C 12.957031 -10.160156 12 -10.25 10.90625 -10.25 C 7.382812 -10.25 5.625 -8.9375 5.625 -6.3125 C 5.625 -4.914062 6.019531 -3.910156 6.8125 -3.296875 C 7.601562 -2.691406 8.671875 -2.390625 10.015625 -2.390625 C 11.578125 -2.390625 12.828125 -2.703125 13.765625 -3.328125 C 14.703125 -3.953125 15.40625 -4.5625 15.875 -5.15625 Z M 15.875 -5.15625 "/></g></g></g></g></g></g><g clip-path="url(#28a180de60)"><g transform="matrix(1, 0, 0, 1, 0, -0.000000000000056843)"><g clip-path="url(#1a9728b220)"><g fill="#000000" fill-opacity="1"><g transform="translate(0.362863, 125.697228)"><g><path d="M 78.875 -26.46875 C 78.875 -22.125 77.832031 -18.1875 75.75 -14.65625 C 73.675781 -11.132812 70.941406 -8.128906 67.546875 -5.640625 C 64.148438 -3.148438 60.367188 -1.25 56.203125 0.0625 C 52.046875 1.375 47.835938 2.03125 43.578125 2.03125 C 39.503906 2.03125 35.335938 1.421875 31.078125 0.203125 C 26.828125 -1.015625 22.890625 -2.867188 19.265625 -5.359375 C 15.648438 -7.847656 12.734375 -11.015625 10.515625 -14.859375 C 8.304688 -18.710938 7.203125 -23.304688 7.203125 -28.640625 L 7.203125 -60.6875 C 7.203125 -66.03125 8.304688 -70.625 10.515625 -74.46875 C 12.734375 -78.3125 15.648438 -81.476562 19.265625 -83.96875 C 22.890625 -86.457031 26.828125 -88.3125 31.078125 -89.53125 C 35.335938 -90.757812 39.503906 -91.375 43.578125 -91.375 C 49.191406 -91.375 54.578125 -90.421875 59.734375 -88.515625 C 64.890625 -86.617188 69.234375 -83.769531 72.765625 -79.96875 C 76.296875 -76.164062 78.332031 -71.367188 78.875 -65.578125 C 78.875 -63.941406 78.554688 -62.875 77.921875 -62.375 C 77.296875 -61.882812 76.210938 -61.640625 74.671875 -61.640625 L 61.640625 -61.640625 C 60.191406 -61.640625 59.285156 -62.132812 58.921875 -63.125 C 58.554688 -64.125 58.101562 -65.03125 57.5625 -65.84375 C 56.113281 -68.101562 54.347656 -69.753906 52.265625 -70.796875 C 50.179688 -71.835938 47.285156 -72.359375 43.578125 -72.359375 C 39.140625 -72.359375 35.519531 -71.160156 32.71875 -68.765625 C 29.914062 -66.367188 28.515625 -63.039062 28.515625 -58.78125 L 28.515625 -30.546875 C 28.515625 -26.203125 29.914062 -22.851562 32.71875 -20.5 C 35.519531 -18.144531 39.140625 -16.96875 43.578125 -16.96875 C 47.285156 -16.96875 50.453125 -17.691406 53.078125 -19.140625 C 55.703125 -20.585938 57.289062 -22.941406 57.84375 -26.203125 C 58.019531 -27.554688 58.3125 -28.707031 58.71875 -29.65625 C 59.125 -30.613281 60.050781 -31.09375 61.5 -31.09375 L 74.8125 -31.09375 C 77.519531 -31.09375 78.875 -29.550781 78.875 -26.46875 Z M 78.875 -26.46875 "/></g></g></g><g fill="#000000" fill-opacity="1"><g transform="translate(84.1275, 125.697228)"><g><path d="M 80.234375 -28.640625 C 80.234375 -23.304688 79.101562 -18.691406 76.84375 -14.796875 C 74.582031 -10.898438 71.640625 -7.707031 68.015625 -5.21875 C 64.398438 -2.738281 60.460938 -0.910156 56.203125 0.265625 C 51.953125 1.441406 47.789062 2.03125 43.71875 2.03125 C 39.644531 2.03125 35.503906 1.441406 31.296875 0.265625 C 27.085938 -0.910156 23.171875 -2.738281 19.546875 -5.21875 C 15.929688 -7.707031 13.015625 -10.898438 10.796875 -14.796875 C 8.578125 -18.691406 7.46875 -23.304688 7.46875 -28.640625 L 7.46875 -60.6875 C 7.46875 -66.03125 8.578125 -70.644531 10.796875 -74.53125 C 13.015625 -78.425781 15.929688 -81.617188 19.546875 -84.109375 C 23.171875 -86.597656 27.085938 -88.429688 31.296875 -89.609375 C 35.503906 -90.785156 39.644531 -91.375 43.71875 -91.375 C 47.789062 -91.375 51.953125 -90.785156 56.203125 -89.609375 C 60.460938 -88.429688 64.398438 -86.597656 68.015625 -84.109375 C 71.640625 -81.617188 74.582031 -78.425781 76.84375 -74.53125 C 79.101562 -70.644531 80.234375 -66.03125 80.234375 -60.6875 Z M 58.921875 -58.78125 C 58.921875 -63.125 57.515625 -66.492188 54.703125 -68.890625 C 51.898438 -71.296875 48.238281 -72.5 43.71875 -72.5 C 39.28125 -72.5 35.65625 -71.296875 32.84375 -68.890625 C 30.039062 -66.492188 28.640625 -63.125 28.640625 -58.78125 L 28.640625 -30.546875 C 28.640625 -26.203125 30.039062 -22.828125 32.84375 -20.421875 C 35.65625 -18.023438 39.28125 -16.828125 43.71875 -16.828125 C 48.238281 -16.828125 51.898438 -18.023438 54.703125 -20.421875 C 57.515625 -22.828125 58.921875 -26.203125 58.921875 -30.546875 Z M 58.921875 -58.78125 "/></g></g></g><g fill="#000000" fill-opacity="1"><g transform="translate(169.657005, 125.697228)"><g><path d="M 78.609375 -89.328125 C 79.878906 -89.328125 80.851562 -89.054688 81.53125 -88.515625 C 82.207031 -87.972656 82.546875 -86.929688 82.546875 -85.390625 L 82.546875 -3.9375 C 82.546875 -2.757812 82.273438 -1.804688 81.734375 -1.078125 C 81.191406 -0.359375 80.148438 0 78.609375 0 L 66.25 0 C 64.53125 0 63.304688 -0.425781 62.578125 -1.28125 C 61.859375 -2.144531 61.046875 -3.253906 60.140625 -4.609375 L 31.359375 -51.1875 L 31.359375 -3.9375 C 31.359375 -2.394531 31.019531 -1.351562 30.34375 -0.8125 C 29.664062 -0.269531 28.691406 0 27.421875 0 L 13.984375 0 C 12.804688 0 11.851562 -0.269531 11.125 -0.8125 C 10.40625 -1.351562 10.046875 -2.394531 10.046875 -3.9375 L 10.046875 -85.390625 C 10.046875 -86.660156 10.316406 -87.632812 10.859375 -88.3125 C 11.398438 -88.988281 12.441406 -89.328125 13.984375 -89.328125 L 26.75 -89.328125 C 28.46875 -89.328125 29.6875 -88.894531 30.40625 -88.03125 C 31.132812 -87.175781 31.953125 -86.070312 32.859375 -84.71875 L 61.640625 -38.28125 L 61.640625 -85.390625 C 61.640625 -86.929688 62 -87.972656 62.71875 -88.515625 C 63.445312 -89.054688 64.398438 -89.328125 65.578125 -89.328125 Z M 78.609375 -89.328125 "/></g></g></g><g fill="#000000" fill-opacity="1"><g transform="translate(260.20968, 125.697228)"><g><path d="M 72.359375 -89.328125 C 73.898438 -89.328125 74.941406 -88.988281 75.484375 -88.3125 C 76.023438 -87.632812 76.296875 -86.660156 76.296875 -85.390625 L 76.296875 -74.265625 C 76.296875 -73.085938 76.023438 -72.132812 75.484375 -71.40625 C 74.941406 -70.6875 73.898438 -70.328125 72.359375 -70.328125 L 31.359375 -70.328125 L 31.359375 -54.4375 L 66.65625 -54.4375 C 68.195312 -54.4375 69.238281 -54.097656 69.78125 -53.421875 C 70.320312 -52.742188 70.59375 -51.769531 70.59375 -50.5 L 70.59375 -39.78125 C 70.59375 -38.601562 70.320312 -37.648438 69.78125 -36.921875 C 69.238281 -36.203125 68.195312 -35.84375 66.65625 -35.84375 L 31.359375 -35.84375 L 31.359375 -4.078125 C 31.359375 -2.359375 31.085938 -1.25 30.546875 -0.75 C 30.003906 -0.25 28.960938 0 27.421875 0 L 13.984375 0 C 12.441406 0 11.398438 -0.359375 10.859375 -1.078125 C 10.316406 -1.804688 10.046875 -2.757812 10.046875 -3.9375 L 10.046875 -85.390625 C 10.046875 -86.660156 10.316406 -87.632812 10.859375 -88.3125 C 11.398438 -88.988281 12.441406 -89.328125 13.984375 -89.328125 Z M 72.359375 -89.328125 "/></g></g></g><g fill="#000000" fill-opacity="1"><g transform="translate(339.901471, 125.697228)"><g><path d="M 83.21875 -4.34375 C 83.851562 -3.4375 83.988281 -2.484375 83.625 -1.484375 C 83.269531 -0.492188 82.457031 0 81.1875 0 L 65.171875 0 C 63.535156 0 62.242188 -0.316406 61.296875 -0.953125 C 60.347656 -1.585938 59.375 -2.628906 58.375 -4.078125 L 43.71875 -25.9375 C 43.082031 -26.75 42.671875 -27.628906 42.484375 -28.578125 C 42.304688 -29.523438 42.21875 -30.953125 42.21875 -32.859375 L 42.21875 -43.71875 C 42.21875 -44.988281 42.488281 -45.960938 43.03125 -46.640625 C 43.582031 -47.316406 44.625 -47.65625 46.15625 -47.65625 L 48.875 -47.65625 C 52.226562 -47.65625 55.210938 -48.695312 57.828125 -50.78125 C 60.453125 -52.863281 61.765625 -55.488281 61.765625 -58.65625 C 61.765625 -62.1875 60.566406 -64.988281 58.171875 -67.0625 C 55.773438 -69.144531 52.8125 -70.1875 49.28125 -70.1875 L 31.21875 -70.1875 L 31.21875 -3.9375 C 31.21875 -2.394531 30.878906 -1.351562 30.203125 -0.8125 C 29.523438 -0.269531 28.550781 0 27.28125 0 L 13.84375 0 C 12.664062 0 11.738281 -0.269531 11.0625 -0.8125 C 10.382812 -1.351562 10.046875 -2.394531 10.046875 -3.9375 L 10.046875 -85.265625 C 10.046875 -86.523438 10.296875 -87.492188 10.796875 -88.171875 C 11.296875 -88.859375 12.3125 -89.203125 13.84375 -89.203125 L 48.0625 -89.203125 C 53.039062 -89.203125 57.15625 -88.882812 60.40625 -88.25 C 63.664062 -87.613281 66.453125 -86.640625 68.765625 -85.328125 C 71.078125 -84.015625 73.179688 -82.410156 75.078125 -80.515625 C 77.609375 -78.066406 79.550781 -74.984375 80.90625 -71.265625 C 82.269531 -67.554688 82.953125 -63.53125 82.953125 -59.1875 C 82.953125 -54.488281 81.957031 -50.28125 79.96875 -46.5625 C 77.976562 -42.851562 75.535156 -39.773438 72.640625 -37.328125 C 69.742188 -34.890625 66.890625 -33.171875 64.078125 -32.171875 Z M 83.21875 -4.34375 "/></g></g></g><g fill="#000000" fill-opacity="1"><g transform="translate(428.281966, 125.697228)"><g><path d="M 86.890625 -3.796875 C 87.253906 -2.984375 87.34375 -2.144531 87.15625 -1.28125 C 86.976562 -0.425781 86.117188 0 84.578125 0 L 70.328125 0 C 68.878906 0 67.789062 -0.269531 67.0625 -0.8125 C 66.34375 -1.351562 65.710938 -2.441406 65.171875 -4.078125 L 61.359375 -14.796875 L 28.109375 -14.796875 L 24.296875 -4.078125 C 23.753906 -2.441406 23.144531 -1.351562 22.46875 -0.8125 C 21.789062 -0.269531 20.679688 0 19.140625 0 L 4.890625 0 C 3.441406 0 2.601562 -0.425781 2.375 -1.28125 C 2.144531 -2.144531 2.210938 -2.984375 2.578125 -3.796875 L 32.71875 -85.125 C 33.257812 -86.570312 33.957031 -87.632812 34.8125 -88.3125 C 35.675781 -88.988281 36.832031 -89.328125 38.28125 -89.328125 L 51.3125 -89.328125 C 52.851562 -89.328125 54.007812 -88.988281 54.78125 -88.3125 C 55.550781 -87.632812 56.253906 -86.570312 56.890625 -85.125 Z M 44.796875 -63.8125 L 34.625 -33.8125 L 54.984375 -33.8125 Z M 44.796875 -63.8125 "/></g></g></g><g fill="#000000" fill-opacity="1"><g transform="translate(515.169113, 125.697228)"><g><path d="M 83.21875 -4.34375 C 83.851562 -3.4375 83.988281 -2.484375 83.625 -1.484375 C 83.269531 -0.492188 82.457031 0 81.1875 0 L 65.171875 0 C 63.535156 0 62.242188 -0.316406 61.296875 -0.953125 C 60.347656 -1.585938 59.375 -2.628906 58.375 -4.078125 L 43.71875 -25.9375 C 43.082031 -26.75 42.671875 -27.628906 42.484375 -28.578125 C 42.304688 -29.523438 42.21875 -30.953125 42.21875 -32.859375 L 42.21875 -43.71875 C 42.21875 -44.988281 42.488281 -45.960938 43.03125 -46.640625 C 43.582031 -47.316406 44.625 -47.65625 46.15625 -47.65625 L 48.875 -47.65625 C 52.226562 -47.65625 55.210938 -48.695312 57.828125 -50.78125 C 60.453125 -52.863281 61.765625 -55.488281 61.765625 -58.65625 C 61.765625 -62.1875 60.566406 -64.988281 58.171875 -67.0625 C 55.773438 -69.144531 52.8125 -70.1875 49.28125 -70.1875 L 31.21875 -70.1875 L 31.21875 -3.9375 C 31.21875 -2.394531 30.878906 -1.351562 30.203125 -0.8125 C 29.523438 -0.269531 28.550781 0 27.28125 0 L 13.84375 0 C 12.664062 0 11.738281 -0.269531 11.0625 -0.8125 C 10.382812 -1.351562 10.046875 -2.394531 10.046875 -3.9375 L 10.046875 -85.265625 C 10.046875 -86.523438 10.296875 -87.492188 10.796875 -88.171875 C 11.296875 -88.859375 12.3125 -89.203125 13.84375 -89.203125 L 48.0625 -89.203125 C 53.039062 -89.203125 57.15625 -88.882812 60.40625 -88.25 C 63.664062 -87.613281 66.453125 -86.640625 68.765625 -85.328125 C 71.078125 -84.015625 73.179688 -82.410156 75.078125 -80.515625 C 77.609375 -78.066406 79.550781 -74.984375 80.90625 -71.265625 C 82.269531 -67.554688 82.953125 -63.53125 82.953125 -59.1875 C 82.953125 -54.488281 81.957031 -50.28125 79.96875 -46.5625 C 77.976562 -42.851562 75.535156 -39.773438 72.640625 -37.328125 C 69.742188 -34.890625 66.890625 -33.171875 64.078125 -32.171875 Z M 83.21875 -4.34375 "/></g></g></g><g fill="#000000" fill-opacity="1"><g transform="translate(603.549608, 125.697228)"><g><path d="M 48.875 -18.59375 C 50.414062 -18.59375 51.457031 -18.253906 52 -17.578125 C 52.539062 -16.898438 52.8125 -15.925781 52.8125 -14.65625 L 52.8125 -3.9375 C 52.8125 -2.757812 52.539062 -1.804688 52 -1.078125 C 51.457031 -0.359375 50.414062 0 48.875 0 L 10.453125 0 C 8.910156 0 7.867188 -0.359375 7.328125 -1.078125 C 6.785156 -1.804688 6.515625 -2.757812 6.515625 -3.9375 L 6.515625 -14.65625 C 6.515625 -15.925781 6.785156 -16.898438 7.328125 -17.578125 C 7.867188 -18.253906 8.910156 -18.59375 10.453125 -18.59375 L 19 -18.59375 L 19 -70.46875 L 10.71875 -70.46875 C 9.1875 -70.46875 8.144531 -70.828125 7.59375 -71.546875 C 7.050781 -72.273438 6.78125 -73.226562 6.78125 -74.40625 L 6.78125 -85.390625 C 6.78125 -86.660156 7.050781 -87.632812 7.59375 -88.3125 C 8.144531 -88.988281 9.1875 -89.328125 10.71875 -89.328125 L 48.46875 -89.328125 C 50.007812 -89.328125 51.050781 -88.988281 51.59375 -88.3125 C 52.132812 -87.632812 52.40625 -86.660156 52.40625 -85.390625 L 52.40625 -74.40625 C 52.40625 -73.226562 52.132812 -72.273438 51.59375 -71.546875 C 51.050781 -70.828125 50.007812 -70.46875 48.46875 -70.46875 L 40.328125 -70.46875 L 40.328125 -18.59375 Z M 48.875 -18.59375 "/></g></g></g><g fill="#000000" fill-opacity="1"><g transform="translate(661.791156, 125.697228)"><g><path d="M 86.890625 -3.796875 C 87.253906 -2.984375 87.34375 -2.144531 87.15625 -1.28125 C 86.976562 -0.425781 86.117188 0 84.578125 0 L 70.328125 0 C 68.878906 0 67.789062 -0.269531 67.0625 -0.8125 C 66.34375 -1.351562 65.710938 -2.441406 65.171875 -4.078125 L 61.359375 -14.796875 L 28.109375 -14.796875 L 24.296875 -4.078125 C 23.753906 -2.441406 23.144531 -1.351562 22.46875 -0.8125 C 21.789062 -0.269531 20.679688 0 19.140625 0 L 4.890625 0 C 3.441406 0 2.601562 -0.425781 2.375 -1.28125 C 2.144531 -2.144531 2.210938 -2.984375 2.578125 -3.796875 L 32.71875 -85.125 C 33.257812 -86.570312 33.957031 -87.632812 34.8125 -88.3125 C 35.675781 -88.988281 36.832031 -89.328125 38.28125 -89.328125 L 51.3125 -89.328125 C 52.851562 -89.328125 54.007812 -88.988281 54.78125 -88.3125 C 55.550781 -87.632812 56.253906 -86.570312 56.890625 -85.125 Z M 44.796875 -63.8125 L 34.625 -33.8125 L 54.984375 -33.8125 Z M 44.796875 -63.8125 "/></g></g></g></g></g></g></g></g></svg>